<?xml version="1.0" standalone="no"?>
<!DOCTYPE svg PUBLIC "-//W3C//DTD SVG 20010904//EN"
 "http://www.w3.org/TR/2001/REC-SVG-20010904/DTD/svg10.dtd">
<svg version="1.0" xmlns="http://www.w3.org/2000/svg"
 width="1024.000000pt" height="920.000000pt" viewBox="0 0 1024.000000 920.000000"
 preserveAspectRatio="xMidYMid meet">

<g transform="translate(0.000000,920.000000) scale(0.100000,-0.100000)"
fill="#000000" stroke="none">
<path d="M5097 5766 c-4 -10 -7 -51 -7 -93 0 -62 5 -86 30 -140 17 -36 29 -68
26 -70 -8 -8 -162 42 -200 65 -57 35 -128 110 -154 162 l-23 45 5 -65 c5 -77
43 -159 93 -199 18 -14 33 -30 33 -35 0 -12 -126 1 -170 17 -41 15 -113 50
-120 57 -3 3 -18 14 -33 23 l-28 18 15 -28 c19 -38 92 -110 130 -130 35 -18
204 -73 227 -73 25 0 119 -50 128 -69 9 -15 3 -16 -55 -13 -42 3 -81 -1 -113
-12 -28 -9 -83 -16 -123 -17 l-73 0 44 -20 c26 -12 77 -21 130 -25 136 -8 146
-11 213 -66 35 -28 79 -57 98 -65 115 -47 123 -57 56 -66 -24 -4 -63 -16 -85
-28 -45 -23 -65 -44 -35 -36 89 25 214 12 288 -29 49 -28 146 -129 146 -153 0
-8 -7 -23 -17 -33 -15 -17 -15 -18 9 -18 14 0 31 7 38 15 7 9 29 15 55 15 49
0 63 13 72 66 l6 38 -26 -17 c-32 -21 -37 -21 -37 -1 0 9 -6 14 -12 11 -28
-10 -57 12 -69 53 -13 42 -31 66 -84 110 -41 33 -75 91 -75 125 0 23 3 26 23
21 12 -3 45 -6 74 -6 48 0 56 -4 108 -49 58 -51 99 -66 151 -55 36 7 84 -10
84 -31 0 -8 7 -15 16 -15 12 0 15 -7 12 -25 -6 -30 3 -32 27 -5 10 11 26 20
35 20 26 0 42 25 38 62 -4 42 -30 55 -146 72 -49 7 -99 19 -111 25 -19 11 -53
68 -55 93 -1 3 -4 10 -8 14 -5 4 -8 16 -8 27 0 11 -41 60 -98 115 -83 82 -100
104 -110 144 -7 26 -12 59 -12 75 l0 28 -15 -29 c-17 -32 -20 -112 -5 -121 6
-3 10 -10 10 -16 0 -32 -97 22 -167 93 -52 53 -106 147 -128 222 -9 29 -13 35
-18 22z m465 -523 c10 -9 18 -22 18 -29 0 -7 10 -22 22 -34 l22 -20 -32 0
c-37 0 -79 34 -88 73 -5 23 -3 27 17 27 12 0 31 -7 41 -17z"/>
<path d="M5024 5546 c11 -9 27 -16 35 -16 21 0 2 16 -29 24 -24 7 -24 6 -6 -8z"/>
<path d="M4715 5520 c-6 -10 63 -45 72 -37 2 3 -2 14 -9 26 -13 22 -52 28 -63
11z"/>
<path d="M4509 5421 c-121 -81 -227 -245 -235 -365 l-5 -61 18 40 c21 48 25
54 84 116 25 27 51 49 57 49 5 0 -7 -34 -28 -76 -22 -42 -42 -96 -46 -120 -3
-24 -10 -47 -15 -50 -12 -7 -12 -196 0 -226 5 -13 14 -41 21 -63 6 -23 20 -52
30 -65 18 -24 18 -24 9 26 -9 54 8 165 27 171 7 2 13 -20 17 -59 6 -61 43
-168 66 -191 6 -6 11 -15 11 -20 0 -17 80 -106 114 -127 39 -24 54 -26 33 -5
-43 43 -86 148 -66 161 5 3 9 0 9 -6 0 -27 117 -132 202 -181 49 -29 107 -72
129 -96 l39 -43 0 33 c0 17 -7 43 -15 57 -8 14 -19 35 -24 48 -6 12 -16 22
-23 22 -8 0 -9 3 -2 10 13 13 99 -31 142 -73 52 -50 72 -100 72 -182 0 -42 -5
-76 -12 -83 -7 -7 -8 -12 -4 -12 5 0 3 -7 -4 -15 -19 -23 -4 -30 25 -11 14 9
35 37 47 61 12 25 26 45 30 45 8 0 11 -47 8 -135 -2 -64 -48 -153 -106 -204
-23 -20 -73 -49 -111 -64 -62 -24 -81 -27 -198 -27 -71 0 -125 -4 -120 -8 51
-45 296 -58 400 -21 181 63 289 226 288 434 0 230 -139 414 -411 546 -128 62
-214 135 -252 214 -19 39 -22 58 -18 121 5 71 7 78 43 114 l38 39 -44 11 c-27
8 -55 25 -76 48 -36 39 -46 80 -15 67 40 -18 150 -17 204 1 l53 18 -55 8 c-97
15 -167 47 -228 105 -31 29 -57 53 -58 53 0 0 -20 -13 -45 -29z"/>
<path d="M4756 5058 c-25 -58 -26 -84 -6 -144 24 -70 35 -83 125 -148 71 -52
87 -62 160 -101 266 -142 374 -251 438 -440 26 -78 28 -215 3 -271 -53 -122
-135 -226 -208 -263 -28 -14 -37 -31 -18 -31 6 0 10 5 10 10 0 6 7 10 16 10 9
0 47 22 83 49 195 145 253 382 147 604 -19 39 -43 83 -53 96 -83 111 -214 212
-368 285 -170 81 -190 93 -240 141 -60 59 -79 105 -73 181 3 30 3 54 2 54 -2
0 -10 -15 -18 -32z"/>
<path d="M5570 4963 c18 -28 42 -61 55 -73 25 -23 114 -42 101 -22 -5 8 0 12
13 12 27 0 79 -46 96 -86 8 -21 27 -40 52 -52 39 -21 66 -46 76 -72 3 -8 6 -1
6 17 1 22 -8 43 -29 67 -31 34 -31 35 -8 39 22 4 22 4 -2 6 -16 0 -43 18 -70
46 -56 57 -95 75 -164 75 -54 0 -59 2 -107 47 l-51 48 32 -52z"/>
</g>
</svg>
